# xmcd
#
# Track frame offsets: 
#        150
#        11504
#        23434
#        35146
#        49462
#        62312
#        75992
#        86582
#        98896
#        111610
#        123338
#        134945
#        148765
#        160754
#        170950
#        184935
#        199994
#        210489
#        221903
#        235340
#
# Disc length: 3340 seconds
#
# Revision: 0
# Processed by: cddbd v1.5.2PL0 Copyright (c) Steve Scherf et al.
# Submitted via: ExactAudioCopyFreeDBPlugin 1.0
#
DISCID=2c0d0a14
DTITLE=Sampler - Bluegrass Hit Festival CD08
DYEAR=1900
DGENRE=Bluegrass
TTITLE0=Bill Monroe - Honky tonk swing
TTITLE1=The Stanley Brothers - Could you love me (one more time)
TTITLE2=Lester Flatt and Earl Scruggs - My cabin in the hills of Carol
TTITLE2=ine
TTITLE3=Mississippi Mud Steppers - Jackson stomp
TTITLE4=Bill Monroe - Back up and push
TTITLE5=Earl Johnson and His Clodhoppers - Red hot breakdown
TTITLE6=Johnny Duncan and The Bluegrass Boys - Out of business
TTITLE7=Lester Flatt and Earl Scruggs - We'll meet again sweetheart
TTITLE8=Tanner and Puckett - Hawkins' rag
TTITLE9=Bill Monroe - Rocky road blues
TTITLE10=The Stanley Brothers - I just got wise
TTITLE11=Uncle Dave Macon - Hold the woodpile down
TTITLE12=Lester Flatt and Earl Scruggs - Is it too late
TTITLE13=The Stanley Brothers - The girl behind the bar
TTITLE14=Bill Monroe - Blue Yodel #4
TTITLE15=Charlie Monroe's Boys - Once I had a darling mother
TTITLE16=The Stanley Brothers - Harbour of love
TTITLE17=Lester Flatt and Earl Scruggs - So happy I'll be
TTITLE18=Buster Carter and Preston Young - Roll in my sweet baby's arms
TTITLE19=Bill Monroe - In the pines
EXTD=
EXTT0=
EXTT1=
EXTT2=
EXTT3=
EXTT4=
EXTT5=
EXTT6=
EXTT7=
EXTT8=
EXTT9=
EXTT10=
EXTT11=
EXTT12=
EXTT13=
EXTT14=
EXTT15=
EXTT16=
EXTT17=
EXTT18=
EXTT19=
PLAYORDER=
